{
  "asset": {
    "version": "2.0",
    "generator": "THREE.GLTFExporter"
  },
  "scenes": [
    {
      "nodes": [
        1
      ],
      "name": "Scene"
    }
  ],
  "scene": 0,
  "nodes": [
    {
      "name": "node-0",
      "mesh": 0
    },
    {
      "matrix": [
        0.22,
        0,
        0,
        0,
        0,
        0.21999999999999997,
        0,
        0,
        0,
        0,
        0.21999999999999997,
        0,
        0,
        0,
        0,
        1
      ],
      "name": "CHAHIN_EARTH.gltf",
      "children": [
        0
      ]
    }
  ],
  "bufferViews": [
    {
      "buffer": 0,
      "byteOffset": 0,
      "byteLength": 35064,
      "target": 34962,
      "byteStride": 12
    },
    {
      "buffer": 0,
      "byteOffset": 35064,
      "byteLength": 35064,
      "target": 34962,
      "byteStride": 12
    },
    {
      "buffer": 0,
      "byteOffset": 70128,
      "byteLength": 23376,
      "target": 34962,
      "byteStride": 8
    },
    {
      "buffer": 0,
      "byteOffset": 93504,
      "byteLength": 5844,
      "target": 34963
    }
  ],
  "buffers": [
    {
      "byteLength": 99348,
      "uri": "data:application/octet-stream;base64,"
    }
  ],
  "accessors": [
    {
      "bufferView": 0,
      "componentType": 5126,
      "count": 2922,
      "max": [
        8.746271133422852,
        8.709680557250977,
        8.57365894317627
      ],
      "min": [
        -8.473750114440918,
        -8.813138008117676,
        -8.653512954711914
      ],
      "type": "VEC3"
    },
    {
      "bufferView": 1,
      "componentType": 5126,
      "count": 2922,
      "max": [
        0.9939000010490417,
        0.9983000159263611,
        0.995199978351593
      ],
      "min": [
        -0.9993000030517578,
        -0.9954000115394592,
        -0.9962000250816345
      ],
      "type": "VEC3"
    },
    {
      "bufferView": 2,
      "componentType": 5126,
      "count": 2922,
      "max": [
        0.8903999924659729,
        -0.0731000006198883
      ],
      "min": [
        0.1096000000834465,
        -0.8863000273704529
      ],
      "type": "VEC2"
    },
    {
      "bufferView": 3,
      "componentType": 5123,
      "count": 2922,
      "max": [
        2921
      ],
      "min": [
        0
      ],
      "type": "SCALAR"
    }
  ],
  "materials": [
    {
      "pbrMetallicRoughness": {
        "baseColorFactor": [
          0.64,
          0.64,
          0.64,
          1
        ],
        "metallicFactor": 0,
        "roughnessFactor": 0.7448017359246658,
        "baseColorTexture": {
          "index": 0
        }
      },
      "doubleSided": true,
      "name": "Material.005"
    }
  ],
  "textures": [
    {
      "sampler": 0,
      "source": 0
    }
  ],
  "samplers": [
    {
      "magFilter": 9729,
      "minFilter": 9987
    }
  ],
  "images": [
    {
      "mimeType": "image/jpeg",
      "uri": "data:image/jpeg;base64,"
    }
  ],
  "meshes": [
    {
      "primitives": [
        {
          "mode": 4,
          "attributes": {
            "POSITION": 0,
            "NORMAL": 1,
            "TEXCOORD_0": 2
          },
          "indices": 3,
          "material": 0
        }
      ]
    }
  ]
}