{
  "asset": {
    "version": "2.0",
    "generator": "THREE.GLTFExporter"
  },
  "scenes": [
    {
      "nodes": [
        1
      ],
      "name": "Scene"
    }
  ],
  "scene": 0,
  "nodes": [
    {
      "name": "node_MeshObject-814447424-PolyPaper20",
      "mesh": 0
    },
    {
      "matrix": [
        10.479999999999995,
        0,
        0,
        0,
        0,
        10.48,
        0,
        0,
        0,
        0,
        10.479999999999999,
        0,
        2.1117331767561422,
        -9.27837717240493,
        27.502534120080362,
        1
      ],
      "name": "mercury.gltf",
      "children": [
        0
      ]
    }
  ],
  "bufferViews": [
    {
      "buffer": 0,
      "byteOffset": 0,
      "byteLength": 33376,
      "target": 34962,
      "byteStride": 16
    },
    {
      "buffer": 0,
      "byteOffset": 33376,
      "byteLength": 25032,
      "target": 34962,
      "byteStride": 12
    },
    {
      "buffer": 0,
      "byteOffset": 58408,
      "byteLength": 25032,
      "target": 34962,
      "byteStride": 12
    },
    {
      "buffer": 0,
      "byteOffset": 83440,
      "byteLength": 4308,
      "target": 34963
    }
  ],
  "buffers": [
    {
      "byteLength": 87748,
      "uri": "data:application/octet-stream;base64,"
    }
  ],
  "accessors": [
    {
      "bufferView": 0,
      "componentType": 5126,
      "count": 2086,
      "max": [
        0.729918897151947,
        0.3250369727611542,
        0.06190747767686844,
        1
      ],
      "min": [
        0.1939721554517746,
        0.08919350802898407,
        0.054592281579971313,
        1
      ],
      "type": "VEC4"
    },
    {
      "bufferView": 1,
      "componentType": 5126,
      "count": 2086,
      "max": [
        0.9998676776885986,
        0.9988325834274292,
        0.9977768063545227
      ],
      "min": [
        -0.9986323714256287,
        -0.9968236088752747,
        -0.999984085559845
      ],
      "type": "VEC3"
    },
    {
      "bufferView": 2,
      "componentType": 5126,
      "count": 2086,
      "max": [
        -0.11813412606716156,
        0.9757674336433411,
        -2.531755208969116
      ],
      "min": [
        -0.28151237964630127,
        0.8028749823570251,
        -2.694992780685425
      ],
      "type": "VEC3"
    },
    {
      "bufferView": 3,
      "componentType": 5123,
      "count": 2154,
      "max": [
        2085
      ],
      "min": [
        0
      ],
      "type": "SCALAR"
    }
  ],
  "materials": [
    {
      "pbrMetallicRoughness": {
        "metallicFactor": 0,
        "roughnessFactor": 0.6
      },
      "name": "BlocksPaper"
    }
  ],
  "meshes": [
    {
      "primitives": [
        {
          "mode": 4,
          "attributes": {
            "COLOR_0": 0,
            "NORMAL": 1,
            "POSITION": 2
          },
          "indices": 3,
          "material": 0
        }
      ]
    }
  ]
}