{
  "asset": {
    "version": "2.0",
    "generator": "THREE.GLTFExporter"
  },
  "scenes": [
    {
      "nodes": [
        4
      ],
      "name": "Scene"
    }
  ],
  "scene": 0,
  "nodes": [
    {
      "name": "buffer-0-mesh-0_0",
      "mesh": 0
    },
    {
      "name": "buffer-0-mesh-0_1",
      "mesh": 1
    },
    {
      "name": "node-0",
      "children": [
        0,
        1
      ]
    },
    {
      "matrix": [
        0.055,
        0,
        0,
        0,
        0,
        0.055000000000000014,
        0,
        0,
        0,
        0,
        0.055000000000000014,
        0,
        0,
        0,
        0,
        1
      ],
      "name": "Neptune_1240gltf",
      "children": [
        2
      ]
    },
    {
      "matrix": [
        1,
        0,
        0,
        0,
        0,
        1,
        0,
        0,
        0,
        0,
        1,
        0,
        0,
        -1.618763861212741,
        0,
        1
      ],
      "name": "neptun.gltf",
      "children": [
        3
      ]
    }
  ],
  "bufferViews": [
    {
      "buffer": 0,
      "byteOffset": 0,
      "byteLength": 1728,
      "target": 34962,
      "byteStride": 12
    },
    {
      "buffer": 0,
      "byteOffset": 1728,
      "byteLength": 1728,
      "target": 34962,
      "byteStride": 12
    },
    {
      "buffer": 0,
      "byteOffset": 3456,
      "byteLength": 1152,
      "target": 34962,
      "byteStride": 8
    },
    {
      "buffer": 0,
      "byteOffset": 4608,
      "byteLength": 288,
      "target": 34963
    },
    {
      "buffer": 0,
      "byteOffset": 4896,
      "byteLength": 4752,
      "target": 34962,
      "byteStride": 12
    },
    {
      "buffer": 0,
      "byteOffset": 9648,
      "byteLength": 4752,
      "target": 34962,
      "byteStride": 12
    },
    {
      "buffer": 0,
      "byteOffset": 14400,
      "byteLength": 3168,
      "target": 34962,
      "byteStride": 8
    },
    {
      "buffer": 0,
      "byteOffset": 17568,
      "byteLength": 792,
      "target": 34963
    }
  ],
  "buffers": [
    {
      "byteLength": 18360,
      "uri": "data:application/octet-stream;base64,"
    }
  ],
  "accessors": [
    {
      "bufferView": 0,
      "componentType": 5126,
      "count": 144,
      "max": [
        25.784299850463867,
        60.319400787353516,
        37.41640090942383
      ],
      "min": [
        -31.356700897216797,
        14.488300323486328,
        -21.785900115966797
      ],
      "type": "VEC3"
    },
    {
      "bufferView": 1,
      "componentType": 5126,
      "count": 144,
      "max": [
        0.9898999929428101,
        0.974399983882904,
        0.866100013256073
      ],
      "min": [
        -0.972100019454956,
        -0.7250999808311462,
        -0.960099995136261
      ],
      "type": "VEC3"
    },
    {
      "bufferView": 2,
      "componentType": 5126,
      "count": 144,
      "max": [
        0.9656000137329102,
        -0.32710000872612
      ],
      "min": [
        -0.10000000149011612,
        -1
      ],
      "type": "VEC2"
    },
    {
      "bufferView": 3,
      "componentType": 5123,
      "count": 144,
      "max": [
        143
      ],
      "min": [
        0
      ],
      "type": "SCALAR"
    },
    {
      "bufferView": 4,
      "componentType": 5126,
      "count": 396,
      "max": [
        28.212200164794922,
        58.28499984741211,
        37.70949935913086
      ],
      "min": [
        -31.356700897216797,
        -0.11159999668598175,
        -21.785900115966797
      ],
      "type": "VEC3"
    },
    {
      "bufferView": 5,
      "componentType": 5126,
      "count": 396,
      "max": [
        0.9538000226020813,
        0.9210000038146973,
        0.9642999768257141
      ],
      "min": [
        -0.9660999774932861,
        -0.974399983882904,
        -0.9850000143051147
      ],
      "type": "VEC3"
    },
    {
      "bufferView": 6,
      "componentType": 5126,
      "count": 396,
      "max": [
        0.9656000137329102,
        0
      ],
      "min": [
        -0.20000000298023224,
        -0.8824999928474426
      ],
      "type": "VEC2"
    },
    {
      "bufferView": 7,
      "componentType": 5123,
      "count": 396,
      "max": [
        395
      ],
      "min": [
        0
      ],
      "type": "SCALAR"
    }
  ],
  "materials": [
    {
      "pbrMetallicRoughness": {
        "baseColorFactor": [
          0.0157,
          0.051,
          0.0902,
          1
        ],
        "metallicFactor": 0,
        "roughnessFactor": 0.9699476628648295
      },
      "doubleSided": true,
      "name": "05___Default"
    },
    {
      "pbrMetallicRoughness": {
        "baseColorFactor": [
          0.0667,
          0.1804,
          0.3451,
          1
        ],
        "metallicFactor": 0,
        "roughnessFactor": 0.9699476628648295
      },
      "doubleSided": true,
      "name": "04___Default"
    }
  ],
  "meshes": [
    {
      "primitives": [
        {
          "mode": 4,
          "attributes": {
            "POSITION": 0,
            "NORMAL": 1,
            "TEXCOORD_0": 2
          },
          "indices": 3,
          "material": 0
        }
      ]
    },
    {
      "primitives": [
        {
          "mode": 4,
          "attributes": {
            "POSITION": 4,
            "NORMAL": 5,
            "TEXCOORD_0": 6
          },
          "indices": 7,
          "material": 1
        }
      ]
    }
  ]
}