{
  "asset": {
    "version": "2.0",
    "generator": "THREE.GLTFExporter"
  },
  "scenes": [
    {
      "nodes": [
        1
      ],
      "name": "Scene"
    }
  ],
  "scene": 0,
  "nodes": [
    {
      "name": "node_MeshObject-1137997312-PolyPaper19",
      "mesh": 0
    },
    {
      "matrix": [
        2,
        0,
        0,
        0,
        0,
        2,
        0,
        0,
        0,
        0,
        2,
        0,
        -4.974391681976237,
        -3.521970283296125,
        -4.3933516150066065,
        1
      ],
      "name": "Saturn_model.gltf",
      "children": [
        0
      ]
    }
  ],
  "bufferViews": [
    {
      "buffer": 0,
      "byteOffset": 0,
      "byteLength": 41760,
      "target": 34962,
      "byteStride": 16
    },
    {
      "buffer": 0,
      "byteOffset": 41760,
      "byteLength": 31320,
      "target": 34962,
      "byteStride": 12
    },
    {
      "buffer": 0,
      "byteOffset": 73080,
      "byteLength": 31320,
      "target": 34962,
      "byteStride": 12
    },
    {
      "buffer": 0,
      "byteOffset": 104400,
      "byteLength": 7044,
      "target": 34963
    }
  ],
  "buffers": [
    {
      "byteLength": 111444,
      "uri": "data:application/octet-stream;base64,"
    }
  ],
  "accessors": [
    {
      "bufferView": 0,
      "componentType": 5126,
      "count": 2610,
      "max": [
        1,
        0.6120656132698059,
        0.2508402466773987,
        1
      ],
      "min": [
        0.729918897151947,
        0.3250369727611542,
        0.054592281579971313,
        1
      ],
      "type": "VEC4"
    },
    {
      "bufferView": 1,
      "componentType": 5126,
      "count": 2610,
      "max": [
        0.9858347177505493,
        0.9970872402191162,
        0.9880489706993103
      ],
      "min": [
        -0.9866266250610352,
        -0.9950760006904602,
        -0.9971840977668762
      ],
      "type": "VEC3"
    },
    {
      "bufferView": 2,
      "componentType": 5126,
      "count": 2610,
      "max": [
        3.3262407779693604,
        2.5157785415649414,
        3.1194863319396973
      ],
      "min": [
        1.6700818538665771,
        1.2484856843948364,
        1.400577425956726
      ],
      "type": "VEC3"
    },
    {
      "bufferView": 3,
      "componentType": 5123,
      "count": 3522,
      "max": [
        2609
      ],
      "min": [
        0
      ],
      "type": "SCALAR"
    }
  ],
  "materials": [
    {
      "pbrMetallicRoughness": {
        "metallicFactor": 0,
        "roughnessFactor": 0.6
      },
      "name": "BlocksPaper"
    }
  ],
  "meshes": [
    {
      "primitives": [
        {
          "mode": 4,
          "attributes": {
            "COLOR_0": 0,
            "NORMAL": 1,
            "POSITION": 2
          },
          "indices": 3,
          "material": 0
        }
      ]
    }
  ]
}