{
  "asset": {
    "version": "2.0",
    "generator": "THREE.GLTFExporter"
  },
  "scenes": [
    {
      "nodes": [
        1
      ],
      "name": "Scene"
    }
  ],
  "scene": 0,
  "nodes": [
    {
      "name": "node_MeshObject-988256704-PolyPaper3",
      "mesh": 0
    },
    {
      "matrix": [
        7,
        0,
        0,
        0,
        0,
        7,
        0,
        0,
        0,
        0,
        7,
        0,
        0.3821935981423197,
        -11.473187278968467,
        -23.16555047881414,
        1
      ],
      "name": "uranus.gltf",
      "children": [
        0
      ]
    }
  ],
  "bufferViews": [
    {
      "buffer": 0,
      "byteOffset": 0,
      "byteLength": 26688,
      "target": 34962,
      "byteStride": 16
    },
    {
      "buffer": 0,
      "byteOffset": 26688,
      "byteLength": 20016,
      "target": 34962,
      "byteStride": 12
    },
    {
      "buffer": 0,
      "byteOffset": 46704,
      "byteLength": 20016,
      "target": 34962,
      "byteStride": 12
    },
    {
      "buffer": 0,
      "byteOffset": 66720,
      "byteLength": 4512,
      "target": 34963
    }
  ],
  "buffers": [
    {
      "byteLength": 71232,
      "uri": "data:application/octet-stream;base64,"
    }
  ],
  "accessors": [
    {
      "bufferView": 0,
      "componentType": 5126,
      "count": 1668,
      "max": [
        0.2195197343826294,
        0.7372047901153564,
        0.8277258276939392,
        1
      ],
      "min": [
        0.2195197343826294,
        0.7372047901153564,
        0.8277258276939392,
        1
      ],
      "type": "VEC4"
    },
    {
      "bufferView": 1,
      "componentType": 5126,
      "count": 1668,
      "max": [
        0.9915046095848083,
        0.9983793497085571,
        0.9915287494659424
      ],
      "min": [
        -0.9991694688796997,
        -0.9983793497085571,
        -0.9893074035644531
      ],
      "type": "VEC3"
    },
    {
      "bufferView": 2,
      "componentType": 5126,
      "count": 1668,
      "max": [
        0.33402708172798157,
        2.0020902156829834,
        3.5667343139648438
      ],
      "min": [
        -0.43479451537132263,
        1.289465069770813,
        3.058114767074585
      ],
      "type": "VEC3"
    },
    {
      "bufferView": 3,
      "componentType": 5123,
      "count": 2256,
      "max": [
        1667
      ],
      "min": [
        0
      ],
      "type": "SCALAR"
    }
  ],
  "materials": [
    {
      "pbrMetallicRoughness": {
        "metallicFactor": 0,
        "roughnessFactor": 0.6
      },
      "name": "BlocksPaper"
    }
  ],
  "meshes": [
    {
      "primitives": [
        {
          "mode": 4,
          "attributes": {
            "COLOR_0": 0,
            "NORMAL": 1,
            "POSITION": 2
          },
          "indices": 3,
          "material": 0
        }
      ]
    }
  ]
}